<svg width="481" height="481" xmlns="http://www.w3.org/2000/svg">
 <style type="text/css">.st0{fill:#AFAFAF;}
	.st1{fill:#D12424;}
	.st2{fill:#09B7CE;}
	.st3{fill:#1F9DB7;}</style>

 <g>
  <title>background</title>
  <rect fill="none" id="canvas_background" height="483" width="483" y="-1" x="-1"/>
 </g>
 <g>
  <title>Layer 1</title>
  <path id="svg_1" d="m219.8,395c-61.4,0 -108.2,-28.3 -130.7,-42c-7.2,-4.3 -10.3,-14.1 -5.9,-21.3c4.3,-7.2 12.8,-10 20,-5.6c21.8,13.2 63.7,38.6 116.6,38.6c79.6,0 103.4,-49.5 110,-70.9c2.5,-7.9 11,-12.5 18.9,-10c8,2.5 12.5,10.9 10,18.9c-6.6,21.7 -36.3,92.3 -138.9,92.3" class="st0"/>
  <path id="svg_2" d="m236.1,482.6c-53.3,0 -104,-10.8 -150.8,-32.1c-11.4,-5.2 -16.5,-18.7 -11.3,-30.1c5.2,-11.4 18.7,-16.5 30.1,-11.3c40.9,18.6 85.6,26.8 132.4,28c97.7,0 170.8,-69.5 170.8,-131.6l0,-180.1c0,-41.3 -31.4,-78.9 -65.8,-78.9l-190.6,0c-57.1,0 -80.4,31.2 -80.4,107.4l0,93.4l55.1,0c12.5,0 22.7,10.2 22.7,22.8c0,12.5 -10.2,22.7 -22.7,22.7l-77.9,0c-12.5,-0.1 -22.7,-10.3 -22.7,-22.8l0,-116.2c0,-101.4 42.4,-152.8 125.9,-152.8l190.6,0c59.3,0 111.3,58.2 111.3,124.4l0,180.2c0,94.3 -101,177.1 -216.2,177.1l-0.5,0l0,-0.1z" class="st1"/>
  <path id="svg_3" d="m337.7,256c-12.6,0 -22.7,-10.2 -22.7,-22.7l0,-29.3c0,-65.3 -56.8,-80.1 -67.2,-80.1l-4.5,0c-33.8,0 -69.8,24.8 -69.8,70.9c0,12.5 -10.2,22.7 -22.7,22.7c-12.5,0 -22.7,-10.2 -22.7,-22.7l0,-93.6c0,-12.6 10.2,-22.7 22.7,-22.7c12.6,0 22.7,10.2 22.7,22.7l0,0.6c17.2,-12.8 37.8,-20.7 58.6,-22.8c1.6,-0.4 3.3,-0.6 5.1,-0.6l10.7,0c39.3,0 112.7,36.8 112.7,125.5l0,29.3c-0.1,12.6 -10.3,22.8 -22.9,22.8" class="st2"/>
  <path id="svg_4" d="m547.9,213.8c-8,0 -13.4,-3.3 -13.6,-11.7c0,-3.9 0,-14.3 0.2,-58.5c0.3,-21.5 0,-30.6 0,-52.4c0,-6.5 -0.2,-16.4 0,-25.8c0,-7.4 8,-11.7 15.7,-11.7c7.7,0 11.9,5.2 16.6,11.7l54.5,77l18.7,26.7c-0.3,-12.2 -0.5,-30.8 -0.5,-47.5l-0.5,-51.5c-0.2,-10.3 2.6,-16.4 13.4,-16.4c8.6,0 12.4,5.4 12.4,15c0,25.7 -0.3,52.8 -0.3,78.3c0.3,12.6 0.5,25.1 0.5,54.1c0,7.7 -7,12.4 -15.4,12.4c-7.2,0 -10.5,-4 -15.9,-11.5c-17.3,-25.2 -50.5,-72.5 -74.4,-106.4c0,25.3 0.7,79.5 1,103.6c0,10.2 -4.5,14.6 -12.4,14.6" class="st3"/>
  <path id="svg_5" d="m547.9,221.8c-13.1,0 -21.2,-7.3 -21.5,-19.5c0,-4.1 0,-14.5 0.3,-58.7c0.1,-13.8 0.1,-22.5 0,-32.6l-0.1,-26.5c0,-5.8 -0.1,-12.6 0.1,-19.2c0,-11.1 10.1,-19.4 23.6,-19.4c12.3,0 18.8,9 23,15l58.5,82.6c-0.1,-7.2 -0.1,-14.7 -0.1,-21.9l-0.5,-51.4c-0.1,-5.4 0.4,-13.2 5.7,-18.8c3.6,-3.7 8.9,-5.6 15.6,-5.6c12.7,0 20.3,8.5 20.3,22.9l-0.3,78.3c0.3,12.5 0.5,24.9 0.5,54.1c0,11.7 -9.8,20.3 -23.4,20.3c-11.7,0 -17.1,-7.5 -22.4,-14.8c-14.1,-20.6 -38.5,-55.4 -59.9,-85.8c0.1,17 0.4,36.8 0.6,53.6l0.3,24.7c0,14.2 -7.6,22.7 -20.3,22.7" class="st2"/>
  <path id="svg_6" d="m701.5,188.3c11,-25.1 21,-49 23.2,-53.8c4.2,-10.7 12.6,-30.9 28.8,-71.9c2.3,-5.8 8.4,-9.1 14.5,-9.1c9.1,0 13.4,3.3 15.7,9.6c7.3,17.1 20.4,51.9 30.9,78.2c1,2.1 2.3,4.9 3.3,7.2c8.7,21.7 13.8,34.2 19.2,46.3c1.1,2.6 2.1,5.2 2.1,8.4c0,4.9 -6.1,10.8 -14.3,10.8c-7,0 -10,-2.6 -12.8,-9.2c-7.3,-18.4 -11.7,-29.9 -12.2,-32.1c-8.2,-0.2 -23.6,-0.2 -40.5,-0.2l-22.9,0c-2.1,5 -7.8,20.6 -11.7,30.4c-2.6,6.3 -5.2,10.8 -12.2,10.8c-7,0 -15,-3.3 -15,-12.1c-0.1,-4.2 1.3,-8 3.9,-13.3m42,-36.3c11.3,0 29.3,0 48.5,-0.5c-4.4,-12.4 -19,-52.9 -23.7,-66.4c-5.8,17.3 -16.5,45.2 -24.8,66.9" class="st3"/>
  <path id="svg_7" d="m824.7,222c-12.5,0 -17.2,-7 -20.2,-14c-5.6,-14.3 -8.8,-22.5 -10.6,-27.3c-8.7,-0.1 -21.2,-0.1 -34.7,-0.1l-17.5,0c-0.9,2.3 -2,5.1 -3.1,8.1c-2.2,5.9 -4.6,12.4 -6.7,17.4c-2.1,5.1 -6.4,15.8 -19.5,15.8c-13.5,0 -22.9,-8.3 -22.9,-20.1c0,-5.7 1.8,-10.5 4.7,-16.8c8.6,-19.4 16.6,-38.3 20.7,-47.9l8.6,-21.2c4.9,-12.1 12.1,-29.9 22.5,-56.1c3.4,-8.6 12,-14.1 21.8,-14.1c11.9,0 19.5,4.8 23.1,14.8c4.1,9.6 10.2,25.5 16.8,42.2c4.7,12.1 9.6,24.6 14,35.7l1,2c0.8,1.7 1.6,3.6 2.2,5.2c8.6,21.5 13.7,33.9 19.1,46c1.5,3.2 2.8,6.8 2.8,11.6c0.2,10.1 -10.2,18.8 -22.1,18.8m-56.4,-113.1c-3.7,10 -7.9,20.9 -11.8,31.3l-1.5,3.9c7.5,-0.1 16.3,-0.1 25.8,-0.3c-3.5,-9.8 -8.3,-23.2 -12.5,-34.9" class="st2"/>
  <path id="svg_8" d="m933,53.7c7.7,0 11.7,3.5 11.7,10.8c0,8.1 -3.2,12.6 -12.4,12.6l-38.9,0l0,11.7c0,23.2 0.2,45.2 0.9,111.2c0,9.4 -4.9,13.8 -14,13.8c-7.7,0 -12.4,-3.3 -12.1,-12.9l0.5,-86.1c0,-13.6 -0.2,-23.9 -0.5,-37.6c-9.2,0.2 -21.1,0.2 -40.7,0.2c-7.7,0 -11,-4.7 -11,-12c0,-6 3.3,-11.2 11.5,-11.4c6.1,0 14.3,0.3 54.5,0.3c8.2,-0.1 40.2,-0.6 50.5,-0.6" class="st3"/>
  <path id="svg_9" d="m880.4,221.8c-6.4,0 -11.4,-1.9 -14.9,-5.4c-3.6,-3.7 -5.3,-8.9 -5.1,-15.6l0.4,-85.9c0,-10.8 -0.1,-19.5 -0.3,-29.6c-8.1,0.1 -18.4,0.1 -32.9,0.1c-11.7,0 -18.9,-7.6 -18.9,-19.9c0,-11.2 7.7,-19 19.2,-19.3l6.5,0c7,0 19.3,0.2 48.2,0.2c3.8,0 13,-0.1 22.6,-0.2c10.9,-0.1 22.5,-0.2 27.9,-0.2c12.1,0 19.6,7.1 19.6,18.7c0,13.1 -7.4,20.6 -20.3,20.6l-30.9,0l0,3.7c0,23.1 0.2,45.1 0.9,111.1c-0.1,13.5 -8.3,21.7 -22,21.7" class="st2"/>
  <path id="svg_10" d="m977.5,65.4c0,-8.8 6.3,-12.4 13.6,-12.4c7.2,0 12.6,4 12.6,11.3l0,56.9c0,10.5 -0.2,28.3 -0.2,37l0.2,42.8c0.2,9.4 -5.6,12.9 -13.1,12.9c-7.5,0 -13.4,-3.8 -13.4,-12.1c0,-5.9 0.2,-13.6 0.2,-20.9l0.5,-64.1c0.1,-13.7 -0.1,-31.1 -0.4,-51.4" class="st3"/>
  <path id="svg_11" d="m990.7,221.8c-12.7,0 -21.3,-8.1 -21.3,-20.1l0.7,-85c0,-11.3 -0.2,-25.4 -0.4,-41.7l-0.1,-9.4c0,-12.2 8.7,-20.4 21.5,-20.4c12.1,0 20.6,7.8 20.6,19.1l0,136.6c0.2,7.6 -2.8,12.4 -5.4,15c-3.7,3.8 -9.1,5.9 -15.6,5.9" class="st2"/>
  <path id="svg_12" d="m1038.6,65.3c0,-7.5 8.2,-12.3 15,-12.3c6.3,0 9.6,2.6 11.7,8.2c2.6,7 5.6,15.1 8.9,24.1l35.6,93.1c2.6,-5.6 5.1,-13.6 7.5,-19.4l37,-97.5c2.1,-5.4 6.3,-8.2 12.2,-8.2c6.1,0 14.3,4.7 14.3,11.7c0,3.2 -1.9,7.2 -3.5,11.4c-4,10.5 -9.8,24.7 -19.2,47.1c-2.1,4.9 -3.7,10.5 -13.1,32.4c-6.1,14.4 -12.6,30.1 -19.7,46.7c-3,7 -7.7,11 -16.4,11c-9.8,0 -12.7,-5.4 -16.1,-13.6c-11.9,-30.9 -22.5,-53.3 -50.8,-123.3c-1.5,-4.3 -3.4,-8.2 -3.4,-11.4" class="st3"/>
  <path id="svg_13" d="m1108.8,221.5c-15.6,0 -20.1,-10.7 -23.4,-18.4c-6,-15.5 -11.5,-28.6 -19,-46.5c-7.8,-18.3 -17.5,-41.6 -31.9,-77l-1.2,-3.4c-1.3,-3.5 -2.6,-7.1 -2.6,-10.9c0,-12.1 11.8,-20.2 22.9,-20.2c9.4,0 15.8,4.4 19.1,13.3l2.9,7.9c1.9,5 3.9,10.5 6,16.4l28.2,73.7c0,-0.1 0,-0.2 0.1,-0.2l36.9,-97.5c3.4,-8.5 10.5,-13.3 19.6,-13.3c10.5,0 22.2,8.1 22.2,19.7c0,4.2 -1.7,8.2 -3.2,12.1l-0.9,2.2c-4,10.5 -9.8,24.6 -19.3,47.2c-0.7,1.5 -1.2,3.1 -2,5.2c-1.8,4.8 -4.7,12.2 -11.1,27.2l-19.6,46.8c-4.5,10.4 -12.5,15.7 -23.7,15.7" class="st2"/>
  <path id="svg_14" d="m1279.7,223.2c-41.5,0 -84.4,-32.1 -84.4,-85.9c0,-58.1 42.9,-92.8 84.3,-92.8c48.4,0 85.7,38.3 85.7,87.2c0,52.1 -36.8,91.5 -85.6,91.5m0.6,-134.2c-21,0 -42.2,17.6 -42.2,46.9c0,26.7 21.2,42.6 41.8,42.6c24.2,0 42.5,-19.8 42.5,-46.1c0,-24.3 -18.4,-43.4 -42.1,-43.4l0,0z" class="st2"/>
  <path id="svg_15" d="m1493.9,72.2c0,5.1 -4.7,11.9 -11.2,11.9c-3.5,0 -8.2,-1.8 -11.3,-3c-6.6,-3 -15.2,-5.6 -26.2,-5.6c-15.9,0 -29.3,10.1 -29.3,23.7c0,14.2 15.2,17.3 31.8,21c28.3,6 51,15.7 51,45.2c0,30.2 -23.9,49.1 -56.8,49.4c-18.2,0 -34.9,-4.7 -44.5,-9.4c-6.5,-3.3 -9.6,-7.2 -9.6,-12.9c0,-6.7 4.9,-13.1 11.4,-13.1c4,0 7.3,1.4 10.5,2.5c8,4 18.5,8.4 31.8,8.4c17.5,0 30.9,-9.1 30.9,-24.1c0,-15 -15.2,-20.3 -32.5,-23.9c-26.5,-5.3 -50.3,-14.7 -50.3,-41.7c0,-28.1 26.7,-48.7 56.1,-48.7c15.5,0 29.5,3.3 40.3,8.4c5.1,2.6 7.9,6.3 7.9,11.9" class="st3"/>
  <path id="svg_16" d="m1441.9,222.6l0,0c-19.9,0 -37.9,-5.2 -47.9,-10.1c-9.4,-4.7 -14.1,-11.4 -14.1,-20c0,-11.6 8.7,-21 19.4,-21c5,0 8.9,1.5 12.1,2.6l2,0.8c7.5,3.8 16.7,7.5 28.3,7.5c10.6,0 22.9,-4.2 22.9,-16.1c0,-6.5 -4.4,-11.7 -26.2,-16.1c-17,-3.4 -56.6,-11.5 -56.6,-49.4c0,-31.2 28.7,-56.6 64,-56.6c15.8,0 31.3,3.3 43.7,9.2c7.9,3.7 12.2,10.4 12.2,18.8c0,9.4 -8.2,19.9 -19.2,19.9c-4.9,0 -10.3,-2.1 -13.8,-3.4c-7.8,-3.6 -15.4,-5.2 -23.6,-5.2c-11.8,0 -21.3,7 -21.3,15.7c0,6.4 6.1,8.9 24.4,13c19.7,4.3 58.4,12.6 58.4,53.2c0.1,33.4 -26.5,57 -64.7,57.2l0,0z" class="st2"/>
  <path id="svg_17" d="m558.6,285.6c3.4,0 20.7,-0.2 23.6,0c37.5,1.2 69.2,22.6 69.2,63.7c0,52.5 -30.3,71.8 -75.8,72.2c-8,0 -17.8,0.2 -26.6,-0.6c-6.2,-0.4 -10.6,-5.6 -10.6,-12.5l0.4,-48.1l-0.6,-60.9c0,-11.4 10,-13.8 20.4,-13.8m2.2,20.4l0,90.8c0,4.8 3.2,4.6 13.4,4.6c32.3,0 55.3,-12.6 55.3,-49.9c0,-32.1 -24.1,-45.9 -50.9,-45.9c-2.9,-0.1 -13.2,-0.1 -17.8,0.4" class="st1"/>
  <path id="svg_18" d="m567.3,429.5c-6.2,0 -12.9,-0.1 -19,-0.7c-10.3,-0.6 -17.8,-9.3 -17.8,-20.4l0.4,-48.2l-0.6,-60.8c0,-8.2 3.6,-21.8 28.3,-21.8l17,-0.1c3.3,0 6.1,0 7.1,0.1c45.8,1.4 76.7,30.2 76.7,71.6c0,52 -28.9,79.7 -83.7,80.2l-8.4,0l0,0.1zm8.2,-136l-17,0.1c-12.4,0 -12.4,3.5 -12.4,5.8l0.6,60.8l-0.4,48.2c0,0.7 0.1,4.4 3.1,4.6c5.9,0.5 12.1,0.6 17.8,0.6l8.2,0c46.3,-0.4 67.9,-20.9 67.9,-64.3c0,-39.7 -31.8,-54.8 -61.6,-55.8c-0.9,0 -3.3,0 -6.2,0m-3.4,115.8c-7.7,0 -19.2,0 -19.2,-12.6l0,-98.1l7.3,-0.6c4.8,-0.4 15.5,-0.4 18.5,-0.4c35.7,0 58.8,21.2 58.8,53.8c0,26.3 -11,57.9 -63.2,57.9l-2.2,0zm-3.4,-15.9c1.2,0 2.5,0 3.4,0l2.1,8l0,-8c32.8,0 47.4,-12.9 47.4,-41.9c0,-35.2 -32.9,-37.9 -43,-37.9c-1.7,-0.1 -5.8,0 -9.9,0l0,79.8z" class="st1"/>
  <path id="svg_19" d="m684.9,295.8c0,-7.5 5.4,-10.6 11.6,-10.6c6.2,0 10.8,3.4 10.8,9.6l0,48.5c0,9 -0.2,24.2 -0.2,31.6l0.2,36.5c0.2,7.9 -4.8,11 -11.2,11c-6.4,0 -11.4,-3.2 -11.4,-10.4c0,-5 0.2,-11.6 0.2,-17.8l0.4,-54.7c0,-11.5 -0.2,-26.3 -0.4,-43.7" class="st1"/>
  <path id="svg_20" d="m696.1,430.3c-11.6,0 -19.3,-7.4 -19.3,-18.3l0.6,-72.5c0,-9.7 -0.1,-21.7 -0.3,-35.6l-0.1,-8c0,-11.1 7.9,-18.7 19.5,-18.7c11,0 18.7,7.2 18.7,17.5l0,116.6c0.2,6.9 -2.6,11.1 -4.9,13.5c-3.5,3.6 -8.4,5.5 -14.2,5.5m0.4,-137.1c-3.6,0 -3.6,1.1 -3.6,2.6l0.1,7.9c0.2,14 0.3,26.1 0.3,35.8l-0.6,72.5c0,1.4 0,2.4 3.5,2.4c1.9,0 2.7,-0.4 2.9,-0.6c0.1,0 0.4,-0.7 0.3,-2.2l-0.2,-36.7l0.2,-80.1c-0.1,-0.7 -0.1,-1.6 -2.9,-1.6" class="st1"/>
  <path id="svg_21" d="m848.4,294.8c4.4,2.6 7,5.2 7,9.4c0,4.9 -3.6,10.6 -9.2,10.6c-3.8,0 -7.8,-2.1 -10.6,-3.8c-6,-3.6 -14.2,-7 -26.3,-7c-22.6,0 -45.1,21.4 -45.1,48.6c0,31.5 18.2,50.2 44.9,50.2c22.7,0 35.9,-18.3 36.3,-36.7l-22.5,0c-5.8,-0.2 -8.8,-4.4 -8.8,-9.5c0,-5.2 2.8,-9.2 9.4,-9.4l31.1,0c10.4,0 12.8,5.8 12.8,15.2c-0.2,35.2 -23.3,60.9 -60.5,60.9c-36.9,0 -64.9,-28 -64.9,-69.3c0,-39.7 32.1,-69.5 68.1,-69.5c16.4,-0.1 29.3,4.7 38.3,10.3" class="st1"/>
  <path id="svg_22" d="m806.9,431.1c-42.2,0 -72.8,-32.5 -72.8,-77.2c0,-42.7 34.1,-77.4 76,-77.4c19.7,0 34,6.3 42.5,11.6c2.8,1.6 10.7,6.3 10.7,16.1c0,8.9 -6.6,18.5 -17.1,18.5c-6,0 -11.3,-3 -14.5,-4.8c-4.4,-2.7 -11.2,-6 -22.4,-6c-17.5,0 -37.2,17.4 -37.2,40.6c0,26.5 13.8,42.3 37,42.3c14.7,0 24,-9.6 27.2,-20.9l-13.4,0c-9.9,-0.3 -16.7,-7.5 -16.7,-17.5c0,-10.1 6.8,-17 17.1,-17.3l31.4,0c13.7,0 20.7,7.7 20.7,23c-0.3,40.7 -28.5,69 -68.5,69m3.2,-138.7c-33.1,0 -60.1,27.6 -60.1,61.5c0,36.1 23.4,61.3 56.9,61.3c31.8,0 52.4,-20.8 52.5,-52.9c0,-7.2 -0.8,-7.2 -4.8,-7.2l-31.1,0l-1.4,1.5l31.5,1.6l-0.2,8.1c-0.5,21.6 -16.1,44.5 -44.2,44.5c-32.1,0 -52.9,-22.9 -52.9,-58.2c0,-30.1 24.8,-56.5 53,-56.5c11.3,0 21.3,2.7 30.4,8.1c1.4,0.8 4.7,2.6 6.5,2.6c0.4,-0.1 1.2,-1.3 1.2,-2.6c0,-0.2 -0.4,-1 -3.1,-2.6c-6.8,-4.2 -18.2,-9.2 -34.2,-9.2" class="st1"/>
  <path id="svg_23" d="m876.4,295.8c0,-7.5 5.4,-10.6 11.6,-10.6c6.2,0 10.8,3.4 10.8,9.6l0,48.5c0,9 -0.2,24.2 -0.2,31.6l0.2,36.5c0.2,7.9 -4.8,11 -11.2,11c-6.4,0 -11.4,-3.2 -11.4,-10.4c0,-5 0.2,-11.6 0.2,-17.8l0.4,-54.7c0.1,-11.5 -0.2,-26.3 -0.4,-43.7" class="st1"/>
  <path id="svg_24" d="m887.6,430.3c-11.5,0 -19.3,-7.4 -19.3,-18.3l0.6,-72.5c0,-9.7 -0.2,-21.7 -0.3,-35.6l-0.1,-8c0,-11.1 7.9,-18.7 19.5,-18.7c11.1,0 18.7,7.2 18.7,17.5l0,116.6c0.2,6.9 -2.5,11.1 -4.8,13.5c-3.5,3.6 -8.4,5.5 -14.3,5.5m0.4,-137.1c-3.6,0 -3.6,1.1 -3.6,2.6l0.1,7.9c0.2,14 0.3,26.1 0.3,35.8l-0.6,72.5c0,1.4 0,2.4 3.4,2.4c1.9,0 2.8,-0.4 2.9,-0.6c0.1,0 0.4,-0.7 0.4,-2.2l-0.2,-36.7l0.2,-80.1c0,-0.7 0,-1.6 -2.9,-1.6" class="st1"/>
  <path id="svg_25" d="m1026.2,285.8c6.6,0 10,3.1 10,9.3c0,6.9 -2.8,10.7 -10.6,10.7l-33.2,0l0,10c0,19.8 0.2,38.6 0.8,94.8c0,7.9 -4.2,11.8 -12,11.8c-6.6,0 -10.6,-2.8 -10.4,-11l0.4,-73.5c0,-11.5 -0.2,-20.4 -0.4,-32.1c-7.8,0.2 -18,0.2 -34.7,0.2c-6.6,0 -9.4,-4 -9.4,-10.2c0,-5.2 2.8,-9.6 9.8,-9.7c5.2,0 12.2,0.1 46.5,0.1c7.1,0 34.4,-0.4 43.2,-0.4" class="st1"/>
  <path id="svg_26" d="m981.3,430.3c-5.8,0 -10.3,-1.7 -13.5,-5c-3.3,-3.3 -4.9,-8 -4.8,-14.1l0.4,-73.3c0,-8.8 -0.1,-16 -0.3,-24c-6.8,0 -15.3,0 -26.9,0c-10.5,0 -17.3,-7.1 -17.3,-18.2c0,-10.3 7,-17.4 17.5,-17.7l5.6,0c5.9,0 16.4,0.1 41.1,0.1c3.3,0 11.1,-0.1 19.3,-0.1c9.3,-0.2 19.1,-0.2 23.8,-0.2c11,0 17.9,6.5 17.9,17.1c0,11.9 -6.8,18.6 -18.5,18.6l-25.2,0l0,2.1c0,19.7 0.2,38.5 0.8,94.7c0,12.4 -7.6,20 -19.9,20m-2.1,-16c0.2,0 0.9,0.1 2.1,0.1c3.8,0 4.1,-0.6 4.1,-3.8c-0.6,-56.3 -0.8,-75.1 -0.8,-94.8l0,-17.9l41.1,0c1.5,0 2.2,-0.2 2.4,-0.3c0,-0.1 0.2,-0.8 0.2,-2.5c0.2,-1 -0.4,-1.3 -2.1,-1.3c-4.6,0 -14.4,0.1 -23.6,0.2c-8.3,0.1 -16.2,0.2 -19.5,0.2c-24.7,0 -35.3,-0.1 -41.2,-0.2l-5.2,0l-1.9,1.8c0,1.5 0.3,2.1 0.3,2.3c17.8,-0.1 27.9,-0.1 35.6,-0.3l8,-0.2l0.2,14c0.2,9 0.3,16.7 0.3,26.3l-0.4,73.5c0,1.8 0.3,2.6 0.4,2.9l0,0z" class="st1"/>
  <path id="svg_27" d="m1040.5,400.5c9.4,-21.4 18,-41.7 19.8,-45.9c3.6,-9.1 10.8,-26.3 24.6,-61.2c2,-5 7.2,-7.8 12.4,-7.8c7.7,0 11.3,2.8 13.3,8.2c6.2,14.6 17.4,44.4 26.4,66.7c0.8,1.8 2,4.1 2.8,6.2c7.4,18.5 11.8,29.2 16.4,39.5c1,2.2 1.8,4.4 1.8,7.1c0,4.3 -5.2,9.2 -12.2,9.2c-6,0 -8.6,-2.2 -11,-7.8c-6.2,-15.7 -10,-25.5 -10.4,-27.3c-7,-0.2 -20.2,-0.2 -34.5,-0.2l-19.5,0c-1.8,4.2 -6.6,17.6 -10,25.9c-2.2,5.4 -4.4,9.2 -10.4,9.2c-5.9,0 -12.7,-2.8 -12.7,-10.4c-0.2,-3.5 1,-6.8 3.2,-11.4m35.9,-30.9c9.6,0 24.9,0 41.3,-0.4c-3.8,-10.6 -16.2,-45.1 -20.2,-56.6c-4.9,14.7 -14.1,38.5 -21.1,57" class="st1"/>
  <path id="svg_28" d="m1145.6,430.4c-11.4,0 -15.8,-6.7 -18.2,-12.5c-4.7,-11.8 -7.3,-18.5 -8.8,-22.6c-7.3,-0.1 -17.7,-0.1 -28.8,-0.1l-14.2,0c-0.7,1.9 -1.5,3.9 -2.3,6.1c-1.9,5 -4,10.6 -5.7,14.9c-1.9,4.7 -5.8,14.2 -17.8,14.2c-12.2,0 -20.7,-7.5 -20.7,-18.3c0,-5.6 2,-10.2 4.2,-14.8c8,-18.2 15.5,-35.9 18.5,-43.1l6.5,-16c4.2,-10.4 10.3,-25.4 19.1,-47.7c3,-7.6 11,-12.8 19.8,-12.8c10.7,0 17.5,4.3 20.8,13.4c3.4,7.9 8.6,21.4 14.1,35.5c4.1,10.5 8.3,21.4 12.1,30.9l0.8,1.8c0.7,1.5 1.4,3 2,4.5c7.3,18.3 11.7,28.9 16.2,39.2c1.2,2.6 2.5,6 2.5,10.3c0.1,9.2 -9.3,17.1 -20.1,17.1m-80.6,-51.1l24.8,0c14.4,0 27.7,0 34.8,0.2l6.2,0.2l1.3,6c0.6,2.2 6.7,17.7 10,26.2c1.2,2.7 1.2,2.7 3.6,2.7c2.6,0 4.1,-1.4 4.4,-1.9c-0.1,-0.4 -0.4,-1.4 -1.2,-3.2c-4.6,-10.5 -9.1,-21.2 -16.5,-39.8c-0.5,-1.2 -1.1,-2.4 -1.6,-3.6l-1.1,-2.4c-4,-9.8 -8.2,-20.7 -12.3,-31.2c-5.4,-14 -10.6,-27.3 -14.1,-35.5c-0.7,-1.8 -1.1,-2.9 -3.8,-3.2l5.6,16.3c4,11.5 16.3,46 20.1,56.5l3.7,10.4l-11,0.2c-16.4,0.4 -31.9,0.4 -41.5,0.4l-11.5,0l9.2,-24.3c5.9,-15.4 12.1,-32 15.9,-43.3l5.5,-16.2c-1.4,0.3 -2.8,1.1 -3.3,2.5c-8.9,22.3 -14.9,37.4 -19.1,47.7l-6.6,16.4c-3.1,7.2 -10.6,24.9 -18.7,43.4c-2.1,4.3 -2.8,6.4 -2.8,8.2c0,2.2 3.4,2.4 4.8,2.4c1.1,-0.3 1.8,-1.1 3.1,-4.2c1.7,-4.1 3.7,-9.7 5.6,-14.6c1.9,-4.9 3.5,-9.4 4.4,-11.5l2.1,-4.8zm32.5,-43.1c-2.7,7.4 -5.7,15.1 -8.6,22.7l-1,2.7c5.6,0 11.9,0 18.7,-0.1c-2.7,-7.4 -6,-16.7 -9.1,-25.3" class="st1"/>
  <path id="svg_29" d="m1198.7,285.4c5.8,0 10.2,2.4 10.4,10.1c0,13.2 -0.4,27.6 -0.7,42.1c0,12.4 -0.2,25.2 -0.2,37.3c0,21.8 -0.2,25 -0.2,27c5.5,0 16.3,0 21.1,-0.2l28.5,-1c7.2,0 9.8,4 9.8,9.4c0,6.6 -3,11.3 -10.4,11.3l-22.8,-0.2c-10.2,0 -19.9,0 -28.1,0.4c-15,0.6 -19.4,-1.8 -20.4,-12.8l0,-7.5c0,-15.4 0.8,-32.3 1,-49.1c0,-18.1 -0.2,-42.9 -0.2,-56.7c0.4,-6.6 5.8,-10.1 12.2,-10.1" class="st1"/>
  <path id="svg_30" d="m1202.4,429.7c-11.1,0 -22.7,-2.4 -24.3,-20.1l0,-8.3c0,-8.7 0.2,-17.9 0.5,-27.2c0.2,-7.3 0.4,-14.7 0.5,-22l-0.2,-56.7c0.3,-10.7 8.5,-18.1 19.9,-18.1c11.2,0 18,6.8 18.3,17.9c0,8.8 -0.2,17.9 -0.3,27.2l-0.5,52.4c0,9.2 0,15.1 -0.1,19c4.8,-0.1 9.9,-0.1 12.8,-0.2l28.6,-1c11,0 18,6.9 18,17.4c0,11.7 -7.2,19.3 -18.3,19.3l-22.8,-0.2c-10,0 -19.6,0 -27.7,0.4l-4.4,0.2zm-3.7,-136.3c-3.9,0 -4,1.8 -4,2.5l0.2,56.5c-0.1,7.6 -0.3,15 -0.5,22.3c-0.2,9.3 -0.5,18.3 -0.5,26.8l0,7.5c0.5,4.8 0.5,4.9 8.5,4.9l3.6,0c8.3,-0.4 18.2,-0.4 28.5,-0.4l22.8,0.2c1.8,0 2.4,0 2.4,-3.5l-1.9,-9.4l0.3,7.9l-28.5,1c-4.8,0.2 -15.8,0.2 -21.4,0.2l-7.9,0l0,-7.9c0.1,-4.6 0.2,-10.3 0.2,-27l0.5,-52.7c0.2,-9.2 0.3,-18.2 0.3,-26.8c0,-1.2 -0.3,-1.8 -0.4,-2c-0.2,0 -0.8,-0.1 -2.2,-0.1" class="st1"/>
  <path id="svg_31" d="m1310,286.1c2.2,0 5.8,0 8.8,0.1c24.9,0 39.5,-0.4 49.3,-0.4c7.6,0 10.7,3.9 10.7,9c0.2,4 -1,8.8 -6.2,10c-8.8,0.4 -29.8,0.2 -46.1,0.2l-8.8,0l0,19.1l-0.2,18.8l0,2.6l8,0c6,0 24.7,-0.4 32.3,-0.6c7.6,0 12.4,1.2 12.2,9.6c0,5.4 -2.4,9.4 -10.4,9.4c-8.8,0 -34.5,0.1 -42.5,0.1c-0.2,4 -0.2,8.7 -0.2,12.9c0,8.1 -0.2,17.1 -0.2,25.3c9.6,0.3 25.2,0 45.5,-0.2c4,-0.2 6.6,-0.5 9.8,-0.5c6.2,0 8.8,3.8 8.8,9.8c0,5.4 -2,10.3 -11.2,10.6c-13.4,0.4 -29.7,0 -53.7,0c-16.3,0 -20.5,-1.6 -21.1,-12.6l0,-7.3c0,-1 0.8,-25.6 0.8,-57.3c0,-16.1 0.2,-32.1 0.2,-48.5c0.4,-7.6 6,-10.1 14.2,-10.1" class="st1"/>
  <path id="svg_32" d="m1355.1,430l-39.2,-0.2c-13.1,0 -27.9,0 -29.1,-20.1l0,-7.8l0,-2.2c0.2,-6.5 0.7,-28.3 0.7,-55.1l0.2,-48.5c0.3,-5.7 3,-18.1 22.1,-18.1c2.3,0 6.1,0 9.3,0.1c14.8,0 26.2,-0.1 34.9,-0.3l13.9,0c13.8,0 18.7,9.1 18.7,16.9c0.5,8.9 -4.3,15.9 -12.3,17.7c-5.7,0.4 -12.9,0.5 -21,0.5l-27.7,-0.1l-0.1,24.6c6,0 24.6,-0.5 32.1,-0.6l0,0c5.9,0 11.7,0.6 16,4.9c3,3.1 4.4,7.4 4.3,12.8c0,10.6 -7,17.2 -18.3,17.2l-34.8,0.1l0,4.9l-0.1,17.5l1.7,0c8.4,0 19.2,-0.1 32,-0.3l6.6,-0.2c2.5,-0.1 4.6,-0.2 7,-0.2c10.2,0 16.7,7 16.7,17.8c0,11.3 -7.1,18.2 -18.9,18.5c-4.5,0.2 -9.3,0.2 -14.7,0.2m-44.8,-136c-6.4,0.6 -6.5,1.3 -6.6,2.6l-0.2,48.1c0,27.1 -0.6,48.9 -0.8,55.6l0,9.1c0.2,2.7 0.6,3.6 0.7,3.6c0.6,0.4 3.4,1 12.5,1l39.2,0.2c5.2,0 9.9,-0.1 14.3,-0.2c2.4,-0.1 3.1,-0.5 3.2,-0.6c0,0 0.3,-0.5 0.3,-2c0,-1.6 -0.3,-2.2 -0.3,-2.2c-2.6,0.4 -4.5,0.4 -6.6,0.5l-7.2,0.2c-12.9,0.2 -23.8,0.2 -32.2,0.2l-17.7,-0.2l0.2,-33.1c0,-4.4 0,-9.1 0.2,-13.3l0.4,-7.5l50,-0.2c2,0 2.6,-0.4 2.6,-0.4l-0.3,-2.7c-0.3,0.1 -1.5,0 -4.1,0c-7.4,0.2 -26.3,0.5 -32.3,0.5l-15.9,0l0.2,-56.3l43.5,0c7.3,0 13.8,0 18,-0.2c-0.5,-0.1 -0.4,-0.8 -0.5,-1.7c0,-0.9 -0.7,-1.4 -2.8,-1.4l-13.7,0.1c-8.8,0.1 -20.3,0.3 -35.6,0.3c-3.2,0 -6.4,0 -8.5,0" class="st1"/>
  <path id="svg_33" d="m1496.1,301.6c0,4.4 -4,10.2 -9.6,10.2c-3,0 -7,-1.6 -9.6,-2.6c-5.6,-2.5 -13,-4.8 -22.3,-4.8c-13.6,0 -25,8.6 -25,20.2c0,12.2 13,14.8 27.1,18c24.2,5.2 43.5,13.3 43.5,38.5c0,25.7 -20.4,41.9 -48.5,42.1c-15.6,0 -29.7,-4 -37.9,-8c-5.6,-2.8 -8.2,-6.2 -8.2,-11c0,-5.8 4.2,-11.2 9.8,-11.2c3.4,0 6.2,1.2 9,2.2c6.8,3.4 15.8,7.3 27.1,7.3c15,0 26.3,-7.8 26.3,-20.6c0,-12.8 -13,-17.4 -27.8,-20.4c-22.5,-4.6 -42.9,-12.5 -42.9,-35.5c0,-24 22.8,-41.5 47.9,-41.5c13.2,0 25.2,2.8 34.3,7.2c4.4,2 6.8,5.1 6.8,9.9" class="st1"/>
  <path id="svg_34" d="m1451.9,431.1l0,0c-17.3,0 -32.7,-4.5 -41.5,-8.8c-8.4,-4.2 -12.6,-10.3 -12.6,-18.1c0,-10.6 7.9,-19.1 17.7,-19.1c4.4,0 7.8,1.3 10.6,2.3l1.9,0.7c6.3,3.2 13.9,6.4 23.6,6.4c8.5,0 18.4,-3.3 18.4,-12.6c0,-4.4 -2.6,-8.8 -21.4,-12.6c-14.7,-3 -49.2,-10 -49.2,-43.3c0,-27.3 25,-49.5 55.8,-49.5c13.6,0 27,2.8 37.7,8c7.2,3.5 11.1,9.5 11.1,17.2c0,8.5 -7.2,18.1 -17.5,18.1c-4.3,0 -8.8,-1.7 -12,-3c-6.7,-3.1 -13.1,-4.4 -19.9,-4.4c-9.4,0 -17,5.5 -17,12.2c0,4.7 5,6.7 19.9,10c17.2,3.7 50.8,10.9 50.8,46.5c-0.1,29.2 -23.2,49.8 -56.4,50l0,0zm-36.4,-30.2c-0.7,0 -1.8,1.5 -1.8,3.2c0,0.8 0,2 3.8,3.9c6.7,3.3 19.8,7.1 34.4,7.1c24.7,-0.2 40.6,-13.6 40.6,-34.1c0,-16.8 -9.8,-24.8 -37.3,-30.8c-15.5,-3.4 -33.4,-7.4 -33.4,-25.7c0,-15.7 14.5,-28.1 32.9,-28.1c9.2,0 17.8,1.8 25.7,5.5c1.4,0.5 4.8,1.8 6.2,1.8c0.5,0 1.6,-1.4 1.7,-2.2c0,-1.1 -0.1,-1.8 -2.1,-2.8c-8.7,-4.1 -19.7,-6.3 -30.9,-6.3c-22,0 -39.9,15 -39.9,33.6c0,14.6 10.2,22.4 36.5,27.7c10.2,2.1 34.1,7 34.1,28.2c0,16.7 -14.1,28.4 -34.3,28.4c-13,0 -23.3,-4.2 -30.7,-8.1c-2.4,-0.7 -4,-1.3 -5.5,-1.3" class="st1"/>
 </g>
</svg>